<svg xmlns="http://www.w3.org/2000/svg" xmlns:xlink="http://www.w3.org/1999/xlink" font-size="10px" font-family="sans-serif" fill="none" stroke="none" stroke-width="1.5" width="400" height="300">
     <g transform="translate(30,10)">
          <line shape-rendering="crispEdges" x1="0" y1="270.0" x2="350" y2="270.0" stroke="rgb(0,0,0)" stroke-width="1"/>
          <line shape-rendering="crispEdges" x1="0" y1="249.23076923076923" x2="350" y2="249.23076923076923" stroke="rgb(238,238,238)" stroke-width="1"/>
          <line shape-rendering="crispEdges" x1="0" y1="228.46153846153845" x2="350" y2="228.46153846153845" stroke="rgb(238,238,238)" stroke-width="1"/>
          <line shape-rendering="crispEdges" x1="0" y1="207.69230769230768" x2="350" y2="207.69230769230768" stroke="rgb(238,238,238)" stroke-width="1"/>
          <line shape-rendering="crispEdges" x1="0" y1="186.9230769230769" x2="350" y2="186.9230769230769" stroke="rgb(238,238,238)" stroke-width="1"/>
          <line shape-rendering="crispEdges" x1="0" y1="166.15384615384613" x2="350" y2="166.15384615384613" stroke="rgb(238,238,238)" stroke-width="1"/>
          <line shape-rendering="crispEdges" x1="0" y1="145.38461538461536" x2="350" y2="145.38461538461536" stroke="rgb(238,238,238)" stroke-width="1"/>
          <line shape-rendering="crispEdges" x1="0" y1="124.61538461538461" x2="350" y2="124.61538461538461" stroke="rgb(238,238,238)" stroke-width="1"/>
          <line shape-rendering="crispEdges" x1="0" y1="103.84615384615384" x2="350" y2="103.84615384615384" stroke="rgb(238,238,238)" stroke-width="1"/>
          <line shape-rendering="crispEdges" x1="0" y1="83.0769230769231" x2="350" y2="83.0769230769231" stroke="rgb(238,238,238)" stroke-width="1"/>
          <line shape-rendering="crispEdges" x1="0" y1="62.30769230769229" x2="350" y2="62.30769230769229" stroke="rgb(238,238,238)" stroke-width="1"/>
          <line shape-rendering="crispEdges" x1="0" y1="41.53846153846155" x2="350" y2="41.53846153846155" stroke="rgb(238,238,238)" stroke-width="1"/>
          <line shape-rendering="crispEdges" x1="0" y1="20.769230769230745" x2="350" y2="20.769230769230745" stroke="rgb(238,238,238)" stroke-width="1"/>
          <line shape-rendering="crispEdges" x1="0" y1="0.0" x2="350" y2="0.0" stroke="rgb(238,238,238)" stroke-width="1"/>
     </g>
     <g transform="translate(30,10)">
          <text pointer-events="none" x="-3" dy=".35em" transform="translate(0,270.0)" fill="rgb(0,0,0)" text-anchor="end">0</text>
          <text pointer-events="none" x="-3" dy=".35em" transform="translate(0,249.23076923076923)" fill="rgb(0,0,0)" text-anchor="end">20</text>
          <text pointer-events="none" x="-3" dy=".35em" transform="translate(0,228.46153846153845)" fill="rgb(0,0,0)" text-anchor="end">40</text>
          <text pointer-events="none" x="-3" dy=".35em" transform="translate(0,207.69230769230768)" fill="rgb(0,0,0)" text-anchor="end">60</text>
          <text pointer-events="none" x="-3" dy=".35em" transform="translate(0,186.9230769230769)" fill="rgb(0,0,0)" text-anchor="end">80</text>
          <text pointer-events="none" x="-3" dy=".35em" transform="translate(0,166.15384615384613)" fill="rgb(0,0,0)" text-anchor="end">100</text>
          <text pointer-events="none" x="-3" dy=".35em" transform="translate(0,145.38461538461536)" fill="rgb(0,0,0)" text-anchor="end">120</text>
          <text pointer-events="none" x="-3" dy=".35em" transform="translate(0,124.61538461538461)" fill="rgb(0,0,0)" text-anchor="end">140</text>
          <text pointer-events="none" x="-3" dy=".35em" transform="translate(0,103.84615384615384)" fill="rgb(0,0,0)" text-anchor="end">160</text>
          <text pointer-events="none" x="-3" dy=".35em" transform="translate(0,83.0769230769231)" fill="rgb(0,0,0)" text-anchor="end">180</text>
          <text pointer-events="none" x="-3" dy=".35em" transform="translate(0,62.30769230769229)" fill="rgb(0,0,0)" text-anchor="end">200</text>
          <text pointer-events="none" x="-3" dy=".35em" transform="translate(0,41.53846153846155)" fill="rgb(0,0,0)" text-anchor="end">220</text>
          <text pointer-events="none" x="-3" dy=".35em" transform="translate(0,20.769230769230745)" fill="rgb(0,0,0)" text-anchor="end">240</text>
          <text pointer-events="none" x="-3" dy=".35em" transform="translate(0,0.0)" fill="rgb(0,0,0)" text-anchor="end">260</text>
     </g>
     <g transform="translate(30,10)">
          <line shape-rendering="crispEdges" x1="0.0" y1="270" x2="0.0" y2="275" stroke="rgb(0,0,0)" stroke-width="1"/>
          <line shape-rendering="crispEdges" x1="43.75" y1="270" x2="43.75" y2="275" stroke="rgb(0,0,0)" stroke-width="1"/>
          <line shape-rendering="crispEdges" x1="87.5" y1="270" x2="87.5" y2="275" stroke="rgb(0,0,0)" stroke-width="1"/>
          <line shape-rendering="crispEdges" x1="131.25" y1="270" x2="131.25" y2="275" stroke="rgb(0,0,0)" stroke-width="1"/>
          <line shape-rendering="crispEdges" x1="175.0" y1="270" x2="175.0" y2="275" stroke="rgb(0,0,0)" stroke-width="1"/>
          <line shape-rendering="crispEdges" x1="218.75" y1="270" x2="218.75" y2="275" stroke="rgb(0,0,0)" stroke-width="1"/>
          <line shape-rendering="crispEdges" x1="262.5" y1="270" x2="262.5" y2="275" stroke="rgb(0,0,0)" stroke-width="1"/>
          <line shape-rendering="crispEdges" x1="306.25" y1="270" x2="306.25" y2="275" stroke="rgb(0,0,0)" stroke-width="1"/>
          <line shape-rendering="crispEdges" x1="350.0" y1="270" x2="350.0" y2="275" stroke="rgb(0,0,0)" stroke-width="1"/>
     </g>
     <g transform="translate(30,10)">
          <text pointer-events="none" y="3" dy=".71em" transform="translate(0.0,275)" fill="rgb(0,0,0)" text-anchor="middle">10</text>
          <text pointer-events="none" y="3" dy=".71em" transform="translate(43.75,275)" fill="rgb(0,0,0)" text-anchor="middle">15</text>
          <text pointer-events="none" y="3" dy=".71em" transform="translate(87.5,275)" fill="rgb(0,0,0)" text-anchor="middle">20</text>
          <text pointer-events="none" y="3" dy=".71em" transform="translate(131.25,275)" fill="rgb(0,0,0)" text-anchor="middle">25</text>
          <text pointer-events="none" y="3" dy=".71em" transform="translate(175.0,275)" fill="rgb(0,0,0)" text-anchor="middle">30</text>
          <text pointer-events="none" y="3" dy=".71em" transform="translate(218.75,275)" fill="rgb(0,0,0)" text-anchor="middle">35</text>
          <text pointer-events="none" y="3" dy=".71em" transform="translate(262.5,275)" fill="rgb(0,0,0)" text-anchor="middle">40</text>
          <text pointer-events="none" y="3" dy=".71em" transform="translate(306.25,275)" fill="rgb(0,0,0)" text-anchor="middle">45</text>
          <text pointer-events="none" y="3" dy=".71em" transform="translate(350.0,275)" fill="rgb(0,0,0)" text-anchor="middle">50</text>
     </g>
     <g transform="translate(30,10)">
          <rect y="270.0" width="6.862745098039223" height="1.0e-10" fill="rgb(31,119,180)" stroke="rgb(0,0,0)" stroke-width="1.0"/>
          <rect x="6.862745098039223" y="270.0" width="6.8627450980392055" height="1.0e-10" fill="rgb(31,119,180)" stroke="rgb(0,0,0)" stroke-width="1.0"/>
          <rect x="13.725490196078429" y="270.0" width="6.862745098039223" height="1.0e-10" fill="rgb(31,119,180)" stroke="rgb(0,0,0)" stroke-width="1.0"/>
          <rect x="20.588235294117652" y="270.0" width="6.8627450980392055" height="1.0e-10" fill="rgb(31,119,180)" stroke="rgb(0,0,0)" stroke-width="1.0"/>
          <rect x="27.450980392156858" y="270.0" width="6.862745098039227" height="1.0e-10" fill="rgb(31,119,180)" stroke="rgb(0,0,0)" stroke-width="1.0"/>
          <rect x="34.313725490196084" y="270.0" width="6.86274509803922" height="1.0e-10" fill="rgb(31,119,180)" stroke="rgb(0,0,0)" stroke-width="1.0"/>
          <rect x="41.176470588235304" y="267.9230769230769" width="6.862745098039213" height="2.076923076923077" fill="rgb(31,119,180)" stroke="rgb(0,0,0)" stroke-width="1.0"/>
          <rect x="48.03921568627452" y="263.7692307692308" width="6.862745098039198" height="6.230769230769231" fill="rgb(31,119,180)" stroke="rgb(0,0,0)" stroke-width="1.0"/>
          <rect x="54.901960784313715" y="266.88461538461536" width="6.86274509803922" height="3.1153846153846154" fill="rgb(31,119,180)" stroke="rgb(0,0,0)" stroke-width="1.0"/>
          <rect x="61.764705882352935" y="257.53846153846155" width="6.862745098039234" height="12.461538461538462" fill="rgb(31,119,180)" stroke="rgb(0,0,0)" stroke-width="1.0"/>
          <rect x="68.62745098039217" y="243.0" width="6.862745098039184" height="27.0" fill="rgb(31,119,180)" stroke="rgb(0,0,0)" stroke-width="1.0"/>
          <rect x="75.49019607843135" y="216.0" width="6.862745098039255" height="54.0" fill="rgb(31,119,180)" stroke="rgb(0,0,0)" stroke-width="1.0"/>
          <rect x="82.35294117647061" y="198.34615384615384" width="6.862745098039184" height="71.65384615384616" fill="rgb(31,119,180)" stroke="rgb(0,0,0)" stroke-width="1.0"/>
          <rect x="89.21568627450979" y="163.03846153846155" width="6.862745098039241" height="106.96153846153845" fill="rgb(31,119,180)" stroke="rgb(0,0,0)" stroke-width="1.0"/>
          <rect x="96.07843137254903" y="120.46153846153845" width="6.862745098039198" height="149.53846153846155" fill="rgb(31,119,180)" stroke="rgb(0,0,0)" stroke-width="1.0"/>
          <rect x="102.94117647058823" y="73.73076923076923" width="6.862745098039198" height="196.26923076923077" fill="rgb(31,119,180)" stroke="rgb(0,0,0)" stroke-width="1.0"/>
          <rect x="109.80392156862743" y="21.80769230769232" width="6.862745098039255" height="248.19230769230768" fill="rgb(31,119,180)" stroke="rgb(0,0,0)" stroke-width="1.0"/>
          <rect x="116.66666666666669" y="3.1153846153845848" width="6.862745098039184" height="266.8846153846154" fill="rgb(31,119,180)" stroke="rgb(0,0,0)" stroke-width="1.0"/>
          <rect x="123.52941176470587" y="29.076923076923066" width="6.862745098039241" height="240.92307692307693" fill="rgb(31,119,180)" stroke="rgb(0,0,0)" stroke-width="1.0"/>
          <rect x="130.3921568627451" y="13.5" width="6.862745098039227" height="256.5" fill="rgb(31,119,180)" stroke="rgb(0,0,0)" stroke-width="1.0"/>
          <rect x="137.25490196078434" y="35.30769230769229" width="6.862745098039198" height="234.6923076923077" fill="rgb(31,119,180)" stroke="rgb(0,0,0)" stroke-width="1.0"/>
          <rect x="144.11764705882354" y="66.46153846153845" width="6.862745098039198" height="203.53846153846155" fill="rgb(31,119,180)" stroke="rgb(0,0,0)" stroke-width="1.0"/>
          <rect x="150.98039215686273" y="112.15384615384613" width="6.862745098039227" height="157.84615384615387" fill="rgb(31,119,180)" stroke="rgb(0,0,0)" stroke-width="1.0"/>
          <rect x="157.84313725490196" y="110.07692307692307" width="6.862745098039227" height="159.92307692307693" fill="rgb(31,119,180)" stroke="rgb(0,0,0)" stroke-width="1.0"/>
          <rect x="164.7058823529412" y="153.69230769230768" width="6.862745098039227" height="116.30769230769232" fill="rgb(31,119,180)" stroke="rgb(0,0,0)" stroke-width="1.0"/>
          <rect x="171.56862745098042" y="196.26923076923077" width="6.86274509803917" height="73.73076923076923" fill="rgb(31,119,180)" stroke="rgb(0,0,0)" stroke-width="1.0"/>
          <rect x="178.43137254901958" y="217.03846153846155" width="6.862745098039227" height="52.96153846153846" fill="rgb(31,119,180)" stroke="rgb(0,0,0)" stroke-width="1.0"/>
          <rect x="185.2941176470588" y="240.9230769230769" width="6.862745098039255" height="29.07692307692308" fill="rgb(31,119,180)" stroke="rgb(0,0,0)" stroke-width="1.0"/>
          <rect x="192.15686274509807" y="243.0" width="6.862745098039227" height="27.0" fill="rgb(31,119,180)" stroke="rgb(0,0,0)" stroke-width="1.0"/>
          <rect x="199.0196078431373" y="251.30769230769232" width="6.86274509803917" height="18.692307692307693" fill="rgb(31,119,180)" stroke="rgb(0,0,0)" stroke-width="1.0"/>
          <rect x="205.88235294117646" y="256.5" width="6.862745098039198" height="13.5" fill="rgb(31,119,180)" stroke="rgb(0,0,0)" stroke-width="1.0"/>
          <rect x="212.74509803921566" y="259.61538461538464" width="6.862745098039198" height="10.384615384615385" fill="rgb(31,119,180)" stroke="rgb(0,0,0)" stroke-width="1.0"/>
          <rect x="219.60784313725486" y="262.7307692307692" width="6.862745098039255" height="7.26923076923077" fill="rgb(31,119,180)" stroke="rgb(0,0,0)" stroke-width="1.0"/>
          <rect x="226.47058823529412" y="265.84615384615387" width="6.862745098039255" height="4.153846153846154" fill="rgb(31,119,180)" stroke="rgb(0,0,0)" stroke-width="1.0"/>
          <rect x="233.33333333333337" y="266.88461538461536" width="6.86274509803917" height="3.1153846153846154" fill="rgb(31,119,180)" stroke="rgb(0,0,0)" stroke-width="1.0"/>
          <rect x="240.19607843137254" y="267.9230769230769" width="6.862745098039198" height="2.076923076923077" fill="rgb(31,119,180)" stroke="rgb(0,0,0)" stroke-width="1.0"/>
          <rect x="247.05882352941174" y="268.96153846153845" width="6.862745098039198" height="1.0384615384615385" fill="rgb(31,119,180)" stroke="rgb(0,0,0)" stroke-width="1.0"/>
          <rect x="253.92156862745094" y="270.0" width="6.862745098039284" height="1.0e-10" fill="rgb(31,119,180)" stroke="rgb(0,0,0)" stroke-width="1.0"/>
          <rect x="260.7843137254902" y="268.96153846153845" width="6.86274509803917" height="1.0384615384615385" fill="rgb(31,119,180)" stroke="rgb(0,0,0)" stroke-width="1.0"/>
          <rect x="267.6470588235294" y="268.96153846153845" width="6.862745098039284" height="1.0384615384615385" fill="rgb(31,119,180)" stroke="rgb(0,0,0)" stroke-width="1.0"/>
          <rect x="274.5098039215687" y="268.96153846153845" width="6.86274509803917" height="1.0384615384615385" fill="rgb(31,119,180)" stroke="rgb(0,0,0)" stroke-width="1.0"/>
          <rect x="281.37254901960785" y="270.0" width="6.862745098039227" height="1.0e-10" fill="rgb(31,119,180)" stroke="rgb(0,0,0)" stroke-width="1.0"/>
          <rect x="288.2352941176471" y="270.0" width="6.862745098039227" height="1.0e-10" fill="rgb(31,119,180)" stroke="rgb(0,0,0)" stroke-width="1.0"/>
          <rect x="295.0980392156863" y="270.0" width="6.86274509803917" height="1.0e-10" fill="rgb(31,119,180)" stroke="rgb(0,0,0)" stroke-width="1.0"/>
          <rect x="301.96078431372547" y="270.0" width="6.862745098039284" height="1.0e-10" fill="rgb(31,119,180)" stroke="rgb(0,0,0)" stroke-width="1.0"/>
          <rect x="308.82352941176475" y="270.0" width="6.86274509803917" height="1.0e-10" fill="rgb(31,119,180)" stroke="rgb(0,0,0)" stroke-width="1.0"/>
          <rect x="315.6862745098039" y="268.96153846153845" width="6.86274509803917" height="1.0384615384615385" fill="rgb(31,119,180)" stroke="rgb(0,0,0)" stroke-width="1.0"/>
          <rect x="322.5490196078431" y="270.0" width="6.862745098039284" height="1.0e-10" fill="rgb(31,119,180)" stroke="rgb(0,0,0)" stroke-width="1.0"/>
          <rect x="329.4117647058824" y="268.96153846153845" width="6.86274509803917" height="1.0384615384615385" fill="rgb(31,119,180)" stroke="rgb(0,0,0)" stroke-width="1.0"/>
          <rect x="336.27450980392155" y="270.0" width="6.862745098039284" height="1.0e-10" fill="rgb(31,119,180)" stroke="rgb(0,0,0)" stroke-width="1.0"/>
          <rect x="343.13725490196083" y="270.0" width="6.86274509803917" height="1.0e-10" fill="rgb(31,119,180)" stroke="rgb(0,0,0)" stroke-width="1.0"/>
     </g>
</svg>